<?xml version="1.0" encoding="utf-8"?>
<!-- Generator: Adobe Illustrator 27.0.0, SVG Export Plug-In . SVG Version: 6.00 Build 0)  -->
<svg version="1.1" id="圖層_1" xmlns="http://www.w3.org/2000/svg" xmlns:xlink="http://www.w3.org/1999/xlink" x="0px" y="0px"
	 viewBox="0 0 40 40" style="enable-background:new 0 0 40 40;" xml:space="preserve">
<style type="text/css">
	.st0{fill:#59D8A1;}
</style>
<path class="st0" d="M20,4C11.2,4,4,11.2,4,20s7.2,16,16,16s16-7.2,16-16S28.8,4,20,4z M27.2,21.3h-5.9v5.9c0,0.7-0.6,1.3-1.3,1.3
	s-1.3-0.6-1.3-1.3v-5.9h-5.9c-0.7,0-1.3-0.6-1.3-1.3s0.6-1.3,1.3-1.3h5.9v-5.9c0-0.7,0.6-1.3,1.3-1.3s1.3,0.6,1.3,1.3v5.9h5.9
	c0.7,0,1.3,0.6,1.3,1.3S27.9,21.3,27.2,21.3z"/>
</svg>
