<?xml version="1.0" encoding="utf-8"?>
<!-- Generator: Adobe Illustrator 27.0.0, SVG Export Plug-In . SVG Version: 6.00 Build 0)  -->
<svg version="1.1" id="圖層_1" xmlns="http://www.w3.org/2000/svg" xmlns:xlink="http://www.w3.org/1999/xlink" x="0px" y="0px"
	 viewBox="0 0 40 40" style="enable-background:new 0 0 40 40;" xml:space="preserve">
<style type="text/css">
	.st0{fill-rule:evenodd;clip-rule:evenodd;fill:#4D4D4D;}
</style>
<path class="st0" d="M36,33.9c0,1-0.9,1.9-1.9,1.9H5.9c-1,0-1.9-0.9-1.9-1.9V10.7c0-1.2,1-2.2,2.2-2.2h3.7V5.4
	c0-0.7,0.5-1.2,1.2-1.2l0,0c0.7,0,1.2,0.5,1.2,1.2v3.1h15.4V5.4c0-0.7,0.5-1.2,1.2-1.2l0,0c0.7,0,1.2,0.5,1.2,1.2v3.1h3.5
	c1.2,0,2.2,1,2.2,2.2V33.9z M6.6,13.4h27c0,0.1,0,0.1,0,0.2v17.1c0,0.9-0.7,1.6-1.6,1.6H8.1c-0.9,0-1.6-0.7-1.6-1.6V13.6
	C6.5,13.5,6.5,13.5,6.6,13.4L6.6,13.4z M9.5,16.6H14v4.2H9.5V16.6z M26.2,23.5h4.5v4.2h-4.5V23.5z M17.9,23.5h4.5v4.2h-4.5V23.5z
	 M9.5,23.5H14v4.2H9.5V23.5z M26.2,16.6h4.5v4.2h-4.5V16.6z M17.9,16.6h4.5v4.2h-4.5V16.6z"/>
</svg>
