<?xml version="1.0" encoding="utf-8"?>
<!-- Generator: Adobe Illustrator 25.4.1, SVG Export Plug-In . SVG Version: 6.00 Build 0)  -->
<svg version="1.1" id="圖層_1" xmlns="http://www.w3.org/2000/svg" xmlns:xlink="http://www.w3.org/1999/xlink" x="0px" y="0px"
	 viewBox="0 0 40 40" style="enable-background:new 0 0 40 40;" xml:space="preserve">
<style type="text/css">
	.st0{fill:#AEAEAE;}
</style>
<g id="Layer_1">
</g>
<g>
	<rect x="16.5" y="15.7" class="st0" width="4" height="3.8"/>
	<rect x="9" y="22" class="st0" width="4" height="3.8"/>
	<rect x="9" y="15.7" class="st0" width="4" height="3.8"/>
	<path class="st0" d="M19.8,22h-3.3v3.8h1.9C18.6,24.4,19.1,23.1,19.8,22z"/>
	<path class="st0" d="M27.7,17.8c0.2,0,0.3,0,0.4,0v-2h-4v2.8C25.2,18,26.4,17.8,27.7,17.8z"/>
	<path class="st0" d="M30.8,8.4h-3.1V5.7c0-0.6-0.5-1.2-1.1-1.2S25.5,5,25.5,5.6v2.8H11.6V5.7c0-0.5-0.3-1-0.9-1.1
		C10,4.4,9.4,5,9.4,5.7v2.8H6.1C5,8.4,4,9.4,4,10.6v20.8c0,0.9,0.8,1.7,1.7,1.7h14.8c-0.8-0.9-1.4-2-1.7-3.1h-11
		c-0.8,0-1.4-0.6-1.4-1.4V13.1c0-0.1,0-0.2,0-0.2h24.4c0,0.1,0,0.1,0,0.2v5.2c0.8,0.3,1.5,0.6,2.2,1.1v-6.5v-2.2
		C32.9,9.4,32,8.4,30.8,8.4z"/>
	<path class="st0" d="M27.7,18.8c-4.6,0-8.3,3.7-8.3,8.3s3.7,8.3,8.3,8.3s8.3-3.7,8.3-8.3S32.3,18.8,27.7,18.8z M30.8,28.2h-2.2v2.2
		c0,0.6-0.5,1.1-1.1,1.1s-1.1-0.5-1.1-1.1v-2.2h-2.2c-0.6,0-1.1-0.5-1.1-1.1s0.5-1.1,1.1-1.1h2.2v-2.2c0-0.6,0.5-1.1,1.1-1.1
		s1.1,0.5,1.1,1.1V26h2.2c0.6,0,1.1,0.5,1.1,1.1S31.4,28.2,30.8,28.2z"/>
</g>
</svg>
