<?xml version="1.0" encoding="utf-8"?>
<!-- Generator: Adobe Illustrator 27.0.0, SVG Export Plug-In . SVG Version: 6.00 Build 0)  -->
<svg version="1.1" id="Layer_1" xmlns="http://www.w3.org/2000/svg" xmlns:xlink="http://www.w3.org/1999/xlink" x="0px" y="0px"
	 viewBox="0 0 40 40" style="enable-background:new 0 0 40 40;" xml:space="preserve">
<style type="text/css">
	.st0{fill:#4D4D4D;}
</style>
<g>
	<g>
		<g>
			<path class="st0" d="M30.1,26.9c-0.1,0-0.2,0-0.2,0H14c-3.2,0-4.2-1.8-4.3-2.9L7.6,5.9H5.1c-0.5,0-0.9-0.4-0.9-0.9S4.6,4,5.1,4
				h4.2l0.6,5.5h22.8c1.2,0,2.1,0.3,2.7,0.9c0.5,0.7,0.4,1.4,0.4,1.5l-2.4,11.8c-0.1,1.1-0.5,1.9-1.2,2.5
				C31.4,26.8,30.5,26.9,30.1,26.9z M11.6,23.9c0,0.2,0.3,1.1,2.4,1.1h15.9H30c0.4,0,1.4,0,1.6-1.6l0-0.1L34,11.6
				c0-0.1-0.3-0.3-1.2-0.3H10.2L11.6,23.9z M34,11.7L34,11.7L34,11.7z"/>
		</g>
		<g>
			<path class="st0" d="M14.3,36c-1.8,0-3.3-1.5-3.3-3.3c0-1.8,1.5-3.4,3.3-3.4s3.3,1.5,3.3,3.3C17.7,34.5,16.2,36,14.3,36z
				 M14.3,31.2c-0.8,0-1.5,0.7-1.5,1.5c0,0.8,0.7,1.5,1.5,1.5s1.5-0.7,1.5-1.5C15.8,31.8,15.1,31.2,14.3,31.2z"/>
		</g>
		<g>
			<path class="st0" d="M27.4,36c-1.8,0-3.3-1.5-3.3-3.3c0-1.8,1.5-3.3,3.3-3.3c1.8,0,3.3,1.5,3.3,3.3C30.8,34.5,29.3,36,27.4,36z
				 M27.4,31.2c-0.8,0-1.5,0.7-1.5,1.5c0,0.8,0.7,1.5,1.5,1.5c0.8,0,1.5-0.7,1.5-1.5C28.9,31.8,28.2,31.2,27.4,31.2z"/>
		</g>
	</g>
</g>
</svg>
