<?xml version="1.0" encoding="utf-8"?>
<!-- Generator: Adobe Illustrator 27.0.0, SVG Export Plug-In . SVG Version: 6.00 Build 0)  -->
<svg version="1.1" id="圖層_1" xmlns="http://www.w3.org/2000/svg" xmlns:xlink="http://www.w3.org/1999/xlink" x="0px" y="0px"
	 viewBox="0 0 40 40" style="enable-background:new 0 0 40 40;" xml:space="preserve">
<style type="text/css">
	.st0{fill-rule:evenodd;clip-rule:evenodd;fill:#FFFFFF;}
</style>
<path class="st0" d="M8.8,8.8C8,9.7,8,11,8.8,11.9l8.1,8.1l-8.1,8.1C8,29,8,30.3,8.8,31.2c0.8,0.8,2.2,0.8,3.1,0l8.1-8.1l8.1,8.1
	c0.8,0.8,2.2,0.8,3.1,0c0.8-0.8,0.8-2.2,0-3.1L23.1,20l8.1-8.1c0.8-0.8,0.8-2.2,0-3.1C30.3,8,29,8,28.1,8.8L20,16.9l-8.1-8.1
	C11,8,9.7,8,8.8,8.8z"/>
</svg>
