<?xml version="1.0" encoding="utf-8"?>
<!-- Generator: Adobe Illustrator 27.0.0, SVG Export Plug-In . SVG Version: 6.00 Build 0)  -->
<svg version="1.1" id="圖層_1" xmlns="http://www.w3.org/2000/svg" xmlns:xlink="http://www.w3.org/1999/xlink" x="0px" y="0px"
	 viewBox="0 0 40 40" style="enable-background:new 0 0 40 40;" xml:space="preserve">
<style type="text/css">
	.st0{fill:#FFFFFF;}
</style>
<path class="st0" d="M35.4,29.6L22.9,7.3C22.2,6,21.1,5.2,20,5.2c-1.1,0-2.2,0.7-2.9,2.1L4.6,29.6c-0.7,1.3-0.8,2.6-0.3,3.6
	c0.6,1,1.8,1.6,3.3,1.6h24.7c1.5,0,2.7-0.6,3.3-1.6C36.2,32.2,36.1,31,35.4,29.6z M20,30c-0.8,0-1.4-0.6-1.4-1.4
	c0-0.8,0.6-1.4,1.4-1.4c0.8,0,1.4,0.6,1.4,1.4S20.8,30,20,30z M21.6,15.1L21,24.2c0,0.8-0.5,1.4-1,1.4c-0.5,0-1-0.6-1-1.4l-0.5-9.1
	c0-0.8,0.6-1.4,1.3-1.4h0.5C21,13.7,21.6,14.3,21.6,15.1z"/>
</svg>
