<?xml version="1.0" encoding="utf-8"?>
<!-- Generator: Adobe Illustrator 27.0.0, SVG Export Plug-In . SVG Version: 6.00 Build 0)  -->
<svg version="1.1" id="Слой_1" xmlns="http://www.w3.org/2000/svg" xmlns:xlink="http://www.w3.org/1999/xlink" x="0px" y="0px"
	 viewBox="0 0 40 40" style="enable-background:new 0 0 40 40;" xml:space="preserve">
<style type="text/css">
	.st0{fill:#4D4D4D;}
</style>
<g>
	<g>
		<circle class="st0" cx="20" cy="20" r="6.1"/>
	</g>
	<g>
		<path class="st0" d="M20.3,29.2c-0.8,0-3.1-0.1-5.9-0.9c-4.5-1.4-8-4.1-10.2-7.9L4,20.1l0.1-0.3c0-0.1,0.9-2.3,3.3-4.5
			c2.2-2,6.1-4.5,12.3-4.5c0.1,0,2.9-0.1,6.3,1c4.6,1.4,7.9,4.2,9.8,8L36,20l-0.1,0.3c0,0.1-0.9,2.3-3.3,4.4c-2.1,2-6,4.4-12,4.5
			C20.5,29.2,20.4,29.2,20.3,29.2z M5.6,20c5,8.2,14.9,7.9,15,7.9l0,0c4.5-0.1,8.2-1.5,11-4.1c1.7-1.6,2.6-3.1,2.9-3.7
			c-4.2-8.1-14.6-7.9-14.7-7.9c-4.6,0.1-8.4,1.4-11.3,4.1C6.7,17.8,5.9,19.3,5.6,20z"/>
	</g>
</g>
</svg>
