<?xml version="1.0" encoding="utf-8"?>
<!-- Generator: Adobe Illustrator 27.0.0, SVG Export Plug-In . SVG Version: 6.00 Build 0)  -->
<svg version="1.1" id="Слой_1" xmlns="http://www.w3.org/2000/svg" xmlns:xlink="http://www.w3.org/1999/xlink" x="0px" y="0px"
	 viewBox="0 0 40 40" style="enable-background:new 0 0 40 40;" xml:space="preserve">
<style type="text/css">
	.st0{fill:#4D4D4D;}
</style>
<g>
	<path class="st0" d="M35.9,19.7c-1.3-2.8-3.7-5.2-6.7-6.8l-1,1c2.9,1.4,5.1,3.5,6.4,6.1c-2.3,4.7-8.1,7.9-14.6,7.9h0
		c-1.8,0-3.5-0.2-5.1-0.7l-1,1c1.9,0.6,4,0.9,6.1,0.9h0c7,0,13.4-3.6,15.8-8.9L36,20L35.9,19.7z M20,10.8L20,10.8
		c-7.1,0-13.4,3.6-15.9,8.9L4,20l0.1,0.3c1.3,2.8,3.7,5.2,6.7,6.8l1-1C9,24.7,6.7,22.6,5.4,20c2.3-4.7,8.1-7.9,14.6-7.9h0
		c1.8,0,3.5,0.2,5.1,0.7l1-1C24.2,11.1,22.1,10.8,20,10.8z"/>
	<path class="st0" d="M25.7,16.4l-0.9,0.9c0.4,0.8,0.7,1.7,0.7,2.7c0,3-2.4,5.5-5.5,5.5c-1,0-1.9-0.3-2.7-0.7l-0.9,0.9
		c1,0.7,2.3,1,3.6,1c3.7,0,6.7-3,6.7-6.7C26.7,18.7,26.4,17.5,25.7,16.4z M20,13.3c-3.7,0-6.7,3-6.7,6.7c0,1.3,0.4,2.6,1,3.6
		l0.9-0.9c-0.4-0.8-0.7-1.7-0.7-2.7c0-3,2.4-5.5,5.5-5.5c1,0,1.9,0.3,2.7,0.7l0.9-0.9C22.6,13.6,21.3,13.3,20,13.3z"/>
	<path class="st0" d="M31.3,9.6l-3,3l-1,1l-2.2,2.2l-0.9,0.9l-7.7,7.7l-0.9,0.9L14,26.9l-1,1l-3.4,3.4c-0.1,0.1-0.3,0.2-0.5,0.2
		c-0.2,0-0.3-0.1-0.5-0.2c-0.3-0.3-0.3-0.7,0-0.9l3-3l1-1l3.1-3.1l7.7-7.7l7-7c0.1-0.1,0.3-0.2,0.5-0.2c0.2,0,0.3,0.1,0.5,0.2
		C31.6,8.9,31.6,9.3,31.3,9.6z"/>
</g>
</svg>
