<?xml version="1.0" encoding="utf-8"?>
<!-- Generator: Adobe Illustrator 27.0.0, SVG Export Plug-In . SVG Version: 6.00 Build 0)  -->
<svg version="1.1" id="Layer_1" xmlns="http://www.w3.org/2000/svg" xmlns:xlink="http://www.w3.org/1999/xlink" x="0px" y="0px"
	 viewBox="0 0 40 40" style="enable-background:new 0 0 40 40;" xml:space="preserve">
<style type="text/css">
	.st0{fill:#63D2FF;}
</style>
<g>
	<path class="st0" d="M12.4,23.1c-0.5,0-0.9,0.4-0.9,0.9s0.4,0.9,0.9,0.9s0.9-0.4,0.9-0.9C13.3,23.5,12.9,23.1,12.4,23.1z"/>
	<path class="st0" d="M10.5,25.4c-0.5,0-0.9,0.4-0.9,0.9s0.4,0.9,0.9,0.9s0.9-0.4,0.9-0.9S11,25.4,10.5,25.4z"/>
	<path class="st0" d="M15.2,26.1c-0.5,0-0.9,0.4-0.9,0.9s0.4,0.9,0.9,0.9s0.9-0.4,0.9-0.9S15.7,26.1,15.2,26.1z"/>
	<circle class="st0" cx="16.8" cy="23.6" r="0.9"/>
	<path class="st0" d="M19.8,25.4c-0.5,0-0.9,0.4-0.9,0.9s0.4,0.9,0.9,0.9s0.9-0.4,0.9-0.9C20.7,25.8,20.3,25.4,19.8,25.4z"/>
	<path class="st0" d="M34.5,10.7H21.8L20.4,4l-1.5,0.3l1.3,6.4H18c-0.6,0-1.1,0.5-1.1,1.1v1.5c0,0.6,0.5,1.1,1.1,1.1h0.5l0.2,6.2
		c-1.6-0.4-2.9-0.4-3.5-0.3c-3,0-5.3,0.9-6.9,2.6c-2,2-2.3,4.7-2.4,5.7C5,29,4.3,29.9,4.3,30.9s0.7,2,1.7,2.3c0.5,2,1.9,2.8,3.2,2.8
		h24.5l1-21.5c0.6,0,1.1-0.5,1.1-1.1v-1.5C35.7,11.2,35.2,10.7,34.5,10.7z M23.9,33.2c-0.4,1-1.4,1.2-1.5,1.2H9.2
		c-0.8,0-1.3-0.6-1.5-1.2H23.9z M25.5,33.1c1-0.3,1.6-1.2,1.6-2.3c0-1-0.7-1.9-1.6-2.2c-0.3-2.6-1.3-4.7-3-6.1
		c-0.6-0.5-1.3-1-2.2-1.3L20,14.5h13l-0.9,19.9H25C25.3,34,25.4,33.6,25.5,33.1z M7.5,28.5c0.1-1,0.5-3,1.9-4.5
		c1.4-1.4,3.3-2.1,5.9-2.1h0.1c0.6,0,3.8-0.2,6.2,1.8c1.3,1.1,2.1,2.7,2.4,4.8H7.5z M25.6,30.9c0,0.4-0.4,0.8-0.8,0.8H6.7
		c-0.4,0-0.8-0.4-0.8-0.8s0.4-0.8,0.8-0.8h18.2C25.3,30.1,25.6,30.4,25.6,30.9z M34.1,12.3V13H18.5v-0.7H34.1z"/>
</g>
</svg>
