<?xml version="1.0" encoding="utf-8"?>
<!-- Generator: Adobe Illustrator 27.0.0, SVG Export Plug-In . SVG Version: 6.00 Build 0)  -->
<svg version="1.1" id="圖層_1" xmlns="http://www.w3.org/2000/svg" xmlns:xlink="http://www.w3.org/1999/xlink" x="0px" y="0px"
	 viewBox="0 0 40 40" style="enable-background:new 0 0 40 40;" xml:space="preserve">
<style type="text/css">
	.st0{fill:#FFFFFF;}
</style>
<g>
	<path class="st0" d="M20,34.7l-0.6-0.5c-4.5-3.7-7.4-6.1-10-8.8C3.8,20,4,15,4,14.4c0-0.1,0-0.2,0-0.3c0-4.7,4-8.7,8.8-8.7
		c2.8,0,5.5,1.4,7.2,3.8c1.7-2.3,4.4-3.8,7.2-3.8c4.8,0,8.8,4,8.8,8.7c0,0.1,0,0.2,0,0.3c0,0.6,0.2,5.7-5.4,11.1
		c-2.6,2.6-5.6,5.1-10,8.8L20,34.7z M5.9,15.3c0.2,1.6,1,5.1,4.8,8.9c2.5,2.5,5.2,4.8,9.3,8.2c4.1-3.4,6.9-5.7,9.3-8.2
		c2.7-2.6,3.9-5.2,4.4-6.8c0.3-0.9,0.4-1.6,0.4-2.1h0l0-0.9c0-0.1,0-0.2,0-0.3c0-3.8-3.2-6.9-7-6.9c-2.6,0-5.2,1.7-6.4,4.2l-0.3,0.5
		h-1.1l-0.3-0.5c-1.2-2.5-3.7-4.2-6.4-4.2c-3.8,0-7,3.2-7,6.9c0,0.1,0,0.2,0,0.3L5.9,15.3L5.9,15.3z"/>
</g>
</svg>
