<?xml version="1.0" encoding="utf-8"?>
<!-- Generator: Adobe Illustrator 27.0.0, SVG Export Plug-In . SVG Version: 6.00 Build 0)  -->
<svg version="1.1" id="圖層_1" xmlns="http://www.w3.org/2000/svg" xmlns:xlink="http://www.w3.org/1999/xlink" x="0px" y="0px"
	 viewBox="0 0 40 40" style="enable-background:new 0 0 40 40;" xml:space="preserve">
<style type="text/css">
	.st0{fill:#D9D9D9;}
</style>
<g>
	<path class="st0" d="M20,34.7l-0.6-0.5c-4.5-3.7-7.4-6.1-10-8.8C3.8,20,4,15,4,14.4c0-0.1,0-0.2,0-0.3c0-4.7,4-8.7,8.8-8.7
		c2.8,0,5.5,1.4,7.2,3.8c1.7-2.3,4.4-3.8,7.2-3.8c4.8,0,8.8,4,8.8,8.7c0,0.1,0,0.2,0,0.3c0,0.6,0.2,5.7-5.4,11.1
		c-2.6,2.6-5.6,5.1-10,8.8L20,34.7z M10.7,24.2c2.3,2.5,5,4.6,7.5,6.8c0.6,0.5,1.2,1,1.7,1.5c4.1-3.4,6.9-5.7,9.3-8.2
		c2.7-2.6,3.9-5.2,4.4-6.8c0.8-2.4,0.6-5.3-0.9-7.3c-1.3-1.8-3.5-2.9-5.7-2.9c-2.6,0-5.2,1.7-6.4,4.2l-0.3,0.5h-1.1L19,11.4
		c-1.2-2.5-3.7-4.2-6.4-4.2c-1.9,0-3.8,0.8-5.1,2.2c-0.9,1-1.6,2.2-1.8,3.5c-0.4,2.1,0.7,4.4,1.6,6.3C8.1,21,9.3,22.7,10.7,24.2z"/>
</g>
</svg>
