<?xml version="1.0" encoding="utf-8"?>
<!-- Generator: Adobe Illustrator 27.0.0, SVG Export Plug-In . SVG Version: 6.00 Build 0)  -->
<svg version="1.1" id="圖層_1" xmlns="http://www.w3.org/2000/svg" xmlns:xlink="http://www.w3.org/1999/xlink" x="0px" y="0px"
	 viewBox="0 0 40 40" style="enable-background:new 0 0 40 40;" xml:space="preserve">
<style type="text/css">
	.st0{fill:#EA8A8A;}
</style>
<path class="st0" d="M36,14.2L36,14.2c0-0.1,0-0.2,0-0.3c0-4.4-3.8-8.3-8.4-8.3c-3.4,0-6.3,2.2-7.6,5l0,0c-1.3-2.8-4.2-5-7.6-5
	C7.7,5.6,4,9.4,4,13.9c0,0.1,0,0.2,0,0.3l0,0c0,0-0.5,5.3,5.4,11.1c2.7,2.7,5.7,5.2,10.6,9.2c4.9-4,7.9-6.5,10.6-9.2
	C36.5,19.5,36,14.2,36,14.2z"/>
</svg>
