<?xml version="1.0" encoding="utf-8"?>
<!-- Generator: Adobe Illustrator 27.0.0, SVG Export Plug-In . SVG Version: 6.00 Build 0)  -->
<svg version="1.1" id="圖層_1" xmlns="http://www.w3.org/2000/svg" xmlns:xlink="http://www.w3.org/1999/xlink" x="0px" y="0px"
	 viewBox="0 0 40 40" style="enable-background:new 0 0 40 40;" xml:space="preserve">
<style type="text/css">
	.st0{fill:#AEAEAE;}
</style>
<path class="st0" d="M34.2,21.8c0.9,0,1.8-0.8,1.8-1.8c0.1-0.5-0.2-0.9-0.6-1.3l-2.9-2.6V9.3c0-1-0.8-1.8-1.8-1.8h-1.8
	c-1,0-1.8,0.8-1.8,1.8v2l-5.9-5.2c-0.3-0.3-0.8-0.4-1.2-0.4s-0.8,0.1-1.2,0.4L4.6,18.6C4.2,19,4,19.5,4,20c0,1,0.8,1.8,1.8,1.8h1.8
	v3.9c0,0.1,0,0.1,0,0.1V32c0,1.2,1,2.2,2.2,2.2h0.9c0.1,0,0.1,0,0.2,0c0.1,0,0.2,0,0.2,0h1.8h1.3c1.2,0,2.2-1,2.2-2.2v-1.3v-3.6
	c0-1,0.8-1.8,1.8-1.8h3.6c1,0,1.8,0.8,1.8,1.8v3.6V32c0,1.2,1,2.2,2.2,2.2h1.3h1.8c0.1,0,0.1,0,0.2,0c0.1,0,0.1,0,0.2,0h0.9
	c1.2,0,2.2-1,2.2-2.2v-0.9c0-0.1,0-0.3,0-0.4l0-8.9L34.2,21.8L34.2,21.8z"/>
</svg>
