<?xml version="1.0" encoding="utf-8"?>
<!-- Generator: Adobe Illustrator 27.0.0, SVG Export Plug-In . SVG Version: 6.00 Build 0)  -->
<svg version="1.1" id="圖層_1" xmlns="http://www.w3.org/2000/svg" xmlns:xlink="http://www.w3.org/1999/xlink" x="0px" y="0px"
	 viewBox="0 0 40 40" style="enable-background:new 0 0 40 40;" xml:space="preserve">
<style type="text/css">
	.st0{fill:#FFFFFF;}
</style>
<g>
	<g>
		<path class="st0" d="M28.5,9.7c-1,0-1.9,0.8-1.9,1.9c0,1,0.8,1.9,1.9,1.9c1,0,1.9-0.8,1.9-1.9S29.5,9.7,28.5,9.7z"/>
		<path class="st0" d="M20.1,12.1c-4.4,0-7.9,3.5-7.9,7.9s3.5,7.9,7.9,7.9S28,24.4,28,20C28,15.7,24.5,12.1,20.1,12.1z M20.1,25.1
			c-2.8,0-5-2.3-5-5s2.3-5,5-5s5,2.3,5,5S22.9,25.1,20.1,25.1z"/>
		<path class="st0" d="M26.4,36H13.6C8.3,36,4,31.7,4,26.4V13.6C4,8.3,8.3,4,13.6,4h12.8c5.3,0,9.6,4.3,9.6,9.6v12.8
			C36,31.7,31.7,36,26.4,36z M13.6,7C10,7,7,10,7,13.6v12.8C7,30,10,33,13.6,33h12.8c3.6,0,6.6-3,6.6-6.6V13.6C33,10,30,7,26.4,7
			H13.6z"/>
	</g>
</g>
</svg>
