<?xml version="1.0" encoding="utf-8"?>
<!-- Generator: Adobe Illustrator 27.0.0, SVG Export Plug-In . SVG Version: 6.00 Build 0)  -->
<svg version="1.1" id="Layer_1" xmlns="http://www.w3.org/2000/svg" xmlns:xlink="http://www.w3.org/1999/xlink" x="0px" y="0px"
	 viewBox="0 0 40 40" style="enable-background:new 0 0 40 40;" xml:space="preserve">
<style type="text/css">
	.st0{fill:#4D4D4D;}
</style>
<g>
	<g>
		<path class="st0" d="M24.9,36.1h-9.8c-2.6,0-4.7-2.1-4.7-4.7V8.7c0-2.6,2.1-4.7,4.7-4.7h9.8c2.6,0,4.7,2.1,4.7,4.7v22.6
			C29.6,33.9,27.5,36.1,24.9,36.1z M15.1,4.9c-2.1,0-3.8,1.7-3.8,3.8v22.6c0,2.1,1.7,3.8,3.8,3.8h9.8c2.1,0,3.8-1.7,3.8-3.8V8.7
			c0-2.1-1.7-3.8-3.8-3.8L15.1,4.9L15.1,4.9z"/>
	</g>
	<g>
		<path class="st0" d="M23,7.4H17c-0.3,0-0.5-0.2-0.5-0.5s0.2-0.5,0.5-0.5H23c0.3,0,0.5,0.2,0.5,0.5S23.2,7.4,23,7.4z"/>
	</g>
	<circle class="st0" cx="20" cy="32.6" r="1.3"/>
</g>
</svg>
