<?xml version="1.0" encoding="utf-8"?>
<!-- Generator: Adobe Illustrator 27.0.0, SVG Export Plug-In . SVG Version: 6.00 Build 0)  -->
<svg version="1.1" id="Layer_1" xmlns="http://www.w3.org/2000/svg" xmlns:xlink="http://www.w3.org/1999/xlink" x="0px" y="0px"
	 viewBox="0 0 40 40" style="enable-background:new 0 0 40 40;" xml:space="preserve">
<style type="text/css">
	.st0{fill:#63D2FF;}
</style>
<g>
	<g>
		<path class="st0" d="M32.5,33.5h-25C5.6,33.5,4,31.9,4,30V14.8c0-1.9,1.6-3.5,3.5-3.5h4.1v-0.5c0-2.3,1.9-4.3,4.3-4.3h8.3
			c2.4,0,4.3,1.9,4.3,4.3v0.5h4.1c1.9,0,3.5,1.5,3.5,3.4V30C36,31.9,34.4,33.5,32.5,33.5z M7.5,13.3C6.7,13.3,6,14,6,14.8V30
			c0,0.8,0.6,1.5,1.5,1.5h25c0.8,0,1.5-0.6,1.5-1.5V14.8c0-0.8-0.7-1.4-1.5-1.4h-6.1v-2.5c0-1.3-1-2.3-2.3-2.3h-8.3
			c-1.3,0-2.3,1-2.3,2.3v2.5H7.5z M24.5,13.3h-8.9v-2.1c0-0.8,0.7-1.6,1.6-1.6h5.7c0.8,0,1.6,0.7,1.6,1.6L24.5,13.3z M22.4,11.3
			L22.4,11.3L22.4,11.3z"/>
	</g>
</g>
</svg>
