<?xml version="1.0" encoding="utf-8"?>
<!-- Generator: Adobe Illustrator 27.0.0, SVG Export Plug-In . SVG Version: 6.00 Build 0)  -->
<svg version="1.1" id="圖層_1" xmlns="http://www.w3.org/2000/svg" xmlns:xlink="http://www.w3.org/1999/xlink" x="0px" y="0px"
	 viewBox="0 0 40 40" style="enable-background:new 0 0 40 40;" xml:space="preserve">
<style type="text/css">
	.st0{fill:#FFFFFF;}
</style>
<g>
	<g>
		<path class="st0" d="M34.4,11H5.6C4.7,11,4,10.2,4,9.4c0-0.9,0.7-1.6,1.6-1.6h28.8c0.9,0,1.6,0.7,1.6,1.6C36,10.2,35.3,11,34.4,11
			z"/>
	</g>
	<g>
		<path class="st0" d="M34.4,21.6H5.6C4.7,21.6,4,20.9,4,20s0.7-1.6,1.6-1.6h28.8c0.9,0,1.6,0.7,1.6,1.6S35.3,21.6,34.4,21.6z"/>
	</g>
	<g>
		<path class="st0" d="M34.4,32.2H5.6c-0.9,0-1.6-0.7-1.6-1.6C4,29.8,4.7,29,5.6,29h28.8c0.9,0,1.6,0.7,1.6,1.6
			C36,31.5,35.3,32.2,34.4,32.2z"/>
	</g>
</g>
</svg>
