<?xml version="1.0" encoding="utf-8"?>
<!-- Generator: Adobe Illustrator 27.0.0, SVG Export Plug-In . SVG Version: 6.00 Build 0)  -->
<svg version="1.1" id="Layer_1" xmlns="http://www.w3.org/2000/svg" xmlns:xlink="http://www.w3.org/1999/xlink" x="0px" y="0px"
	 viewBox="0 0 40 40" style="enable-background:new 0 0 40 40;" xml:space="preserve">
<style type="text/css">
	.st0{fill:#FFFFFF;}
</style>
<path class="st0" d="M35.7,33.9l-6.4-6.4c2.1-2.5,3.4-5.7,3.4-9.2C32.7,10.4,26.3,4,18.3,4S4,10.4,4,18.3s6.4,14.3,14.3,14.3
	c3.5,0,6.7-1.3,9.2-3.4l6.4,6.4c0.5,0.5,1.2,0.5,1.7,0C36.1,35.1,36.1,34.4,35.7,33.9z M6.3,18.2c0-6.6,5.4-12,12-12s12,5.4,12,12
	s-5.4,12-12,12S6.3,24.9,6.3,18.2z"/>
</svg>
