<?xml version="1.0" encoding="utf-8"?>
<!-- Generator: Adobe Illustrator 27.0.0, SVG Export Plug-In . SVG Version: 6.00 Build 0)  -->
<svg version="1.1" id="Layer_1" xmlns="http://www.w3.org/2000/svg" xmlns:xlink="http://www.w3.org/1999/xlink" x="0px" y="0px"
	 viewBox="0 0 40 40" style="enable-background:new 0 0 40 40;" xml:space="preserve">
<style type="text/css">
	.st0{fill:#59D8A1;}
</style>
<g>
	<path class="st0" d="M20.9,5.4l3.2,9.8c0.1,0.3,0.4,0.6,0.8,0.6h10.3c0.8,0,1.2,1.1,0.5,1.6l-8.3,6c-0.3,0.2-0.4,0.6-0.3,1l3.2,9.8
		c0.2,0.8-0.6,1.5-1.3,1L20.5,29c-0.3-0.2-0.7-0.2-1,0l-8.3,6c-0.7,0.5-1.6-0.1-1.3-1l3.2-9.7c0.1-0.3,0-0.7-0.3-1l-8.3-6
		c-0.7-0.5-0.3-1.6,0.5-1.6h10.3c0.4,0,0.7-0.2,0.8-0.6l3.2-9.8C19.4,4.5,20.6,4.5,20.9,5.4z"/>
</g>
</svg>
