<?xml version="1.0" encoding="utf-8"?>
<!-- Generator: Adobe Illustrator 27.0.0, SVG Export Plug-In . SVG Version: 6.00 Build 0)  -->
<svg version="1.1" id="Layer_1" xmlns="http://www.w3.org/2000/svg" xmlns:xlink="http://www.w3.org/1999/xlink" x="0px" y="0px"
	 viewBox="0 0 40 40" style="enable-background:new 0 0 40 40;" xml:space="preserve">
<style type="text/css">
	.st0{fill:#59D8A1;}
</style>
<g>
	<g>
		<path class="st0" d="M20.1,9.3l2.1,6.5c0.4,1.2,1.5,2,2.7,2h6.8l-5.5,4c-1,0.7-1.4,1.9-1.1,3.1l0,0.1l0,0.1l2.1,6.5l-5.6-4.1l0,0
			l0,0c-0.5-0.3-1-0.5-1.6-0.5c-0.6,0-1.1,0.2-1.6,0.5l0,0l0,0l-5.4,3.9l2.1-6.4c0.3-1,0-2.2-0.8-3l-0.1-0.1L14,21.7l-5.5-4h6.8
			c1.3,0,2.4-0.8,2.7-2L20.1,9.3 M20,4.7c-0.3,0-0.6,0.2-0.7,0.6l-3.2,9.8c-0.1,0.4-0.4,0.6-0.8,0.6H5c-0.8,0-1.2,1.1-0.5,1.6l8.3,6
			c0.3,0.3,0.4,0.7,0.3,1L9.9,34c-0.2,0.7,0.2,1.2,0.8,1.2c0.2,0,0.4-0.1,0.5-0.2l8.3-6c0.1-0.1,0.3-0.1,0.5-0.1
			c0.2,0,0.4,0.1,0.5,0.1l8.5,6.2c0.2,0.1,0.3,0.2,0.5,0.2c0.5,0,1-0.6,0.8-1.2l-3.2-9.8c-0.1-0.4,0-0.8,0.3-1l8.3-6
			c0.7-0.5,0.3-1.6-0.5-1.6H24.9c-0.4,0-0.7-0.3-0.8-0.6l-3.2-9.8C20.7,4.9,20.4,4.7,20,4.7L20,4.7z"/>
	</g>
</g>
</svg>
