<?xml version="1.0" encoding="utf-8"?>
<!-- Generator: Adobe Illustrator 27.0.0, SVG Export Plug-In . SVG Version: 6.00 Build 0)  -->
<svg version="1.1" id="Layer_1" xmlns="http://www.w3.org/2000/svg" xmlns:xlink="http://www.w3.org/1999/xlink" x="0px" y="0px"
	 viewBox="0 0 40 40" style="enable-background:new 0 0 40 40;" xml:space="preserve">
<style type="text/css">
	.st0{fill:#FFFFFF;}
</style>
<path class="st0" d="M33.6,17.3V15c0-2-1.6-3.5-3.5-3.5H9.9c-2,0-3.5,1.6-3.5,3.5v2.4C5,17.5,4,18.6,4,19.9v6.5
	c0,1.2,0.9,2.1,2.1,2.1h0.8c1.1,0,2-0.7,2.4-1.7l1-3H30l0.9,2.9c0.3,1.1,1.3,1.8,2.4,1.8h0.6c1.2,0,2.1-0.9,2.1-2.1v-6.5
	C36,18.6,34.9,17.4,33.6,17.3z M8.1,15c0-1,0.8-1.8,1.8-1.8H30c1,0,1.8,0.8,1.8,1.8v2.3H8.1L8.1,15L8.1,15z M6.6,19.1h26.8
	c0.5,0,0.9,0.4,0.9,0.9v2.1H5.8v-2.1C5.8,19.5,6.1,19.1,6.6,19.1z M7.6,26.3c-0.1,0.3-0.4,0.5-0.7,0.5H6.1c-0.2,0-0.3-0.2-0.3-0.3
	v-2.6h2.6L7.6,26.3z M33.9,26.8h-0.6c-0.3,0-0.6-0.2-0.7-0.5l-0.7-2.4h2.4v2.6C34.2,26.6,34.1,26.8,33.9,26.8z"/>
</svg>
