<?xml version="1.0" encoding="utf-8"?>
<!-- Generator: Adobe Illustrator 27.0.1, SVG Export Plug-In . SVG Version: 6.00 Build 0)  -->
<svg version="1.1" id="圖層_1" xmlns="http://www.w3.org/2000/svg" xmlns:xlink="http://www.w3.org/1999/xlink" x="0px" y="0px"
	 viewBox="0 0 200.7 200.7" style="enable-background:new 0 0 200.7 200.7;" xml:space="preserve">
<style type="text/css">
	.st0{fill:#59D8A1;}
</style>
<path class="st0" d="M100.4,27.8c-40.1,0-72.6,32.5-72.6,72.6c0,40.1,32.5,72.6,72.6,72.6c40.1,0,72.6-32.5,72.6-72.6
	C172.9,60.3,140.4,27.8,100.4,27.8z M136.9,77.9l-40.8,51.6c-1.9,2.4-5.2,2.6-7.3,0.5l-24.5-24.5c-1.9-1.9-2.4-5.2-0.5-7.5
	c2.1-2.6,5.7-2.6,8-0.5l16,16c2.1,2.1,5.4,1.9,7.3-0.5l33.2-41.7c1.9-2.4,5.2-2.8,7.5-0.9C138.3,72.3,138.8,75.6,136.9,77.9z"/>
</svg>
