<?xml version="1.0" encoding="utf-8"?>
<!-- Generator: Adobe Illustrator 27.0.0, SVG Export Plug-In . SVG Version: 6.00 Build 0)  -->
<svg version="1.1" id="Layer_1" xmlns="http://www.w3.org/2000/svg" xmlns:xlink="http://www.w3.org/1999/xlink" x="0px" y="0px"
	 viewBox="0 0 40 40" style="enable-background:new 0 0 40 40;" xml:space="preserve">
<style type="text/css">
	.st0{fill:#FFFFFF;}
</style>
<g>
	<g>
		<path class="st0" d="M16,36l-3.9-3.9l0.8-0.7c1.2-1.2,1.2-3,0-4.1c-0.5-0.5-1.3-0.8-2.1-0.8s-1.5,0.3-2.1,0.8l-0.1,0.1L8,28l-4-4
			L24,4l4,4l-0.7,0.7c-1.1,1.1-1.1,2.9,0,4.1s2.9,1.1,4.1,0l0,0l0.7-0.7L36,16L16,36z M14.8,32.1l1.2,1.2L33.3,16l-1.2-1.2
			c-1.9,1.2-4.5,1-6.1-0.6c-1.6-1.6-1.9-4.2-0.6-6.1L24,6.7L6.7,24l1.3,1.3c0.8-0.6,1.8-0.9,2.8-0.9c1.3,0,2.5,0.5,3.4,1.4
			C16,27.5,16.2,30.2,14.8,32.1z"/>
	</g>
	<g>
		<g>
			
				<rect x="21.6" y="16.5" transform="matrix(0.7071 -0.7071 0.7071 0.7071 -5.7604 21.0435)" class="st0" width="1.9" height="1.9"/>
		</g>
		<g>
			<rect x="19" y="13.9" transform="matrix(0.7071 -0.7071 0.7071 0.7071 -4.6889 18.4904)" class="st0" width="1.9" height="1.9"/>
		</g>
		<g>
			
				<rect x="24.1" y="19.1" transform="matrix(0.7071 -0.7071 0.7071 0.7071 -6.8185 23.6289)" class="st0" width="1.9" height="1.9"/>
		</g>
	</g>
</g>
</svg>
