<?xml version="1.0" encoding="utf-8"?>
<!-- Generator: Adobe Illustrator 27.0.0, SVG Export Plug-In . SVG Version: 6.00 Build 0)  -->
<svg version="1.1" id="圖層_1" xmlns="http://www.w3.org/2000/svg" xmlns:xlink="http://www.w3.org/1999/xlink" x="0px" y="0px"
	 viewBox="0 0 40 40" style="enable-background:new 0 0 40 40;" xml:space="preserve">
<style type="text/css">
	.st0{fill:#AEAEAE;}
</style>
<g>
	<path class="st0" d="M32,10.7H21.2l0-5.5C21.2,4.6,20.6,4,20,4l0,0c-0.7,0-1.2,0.6-1.2,1.2l0,5.5H8c-0.7,0-1.2,0.6-1.2,1.2
		s0.6,1.2,1.2,1.2h1.7L11.5,36h16.7l1.9-22.8H32c0.7,0,1.2-0.6,1.2-1.2S32.7,10.7,32,10.7z M25.9,33.5H13.8l-1.6-20.3H20l0,0h7.6
		L25.9,33.5z"/>
	<path class="st0" d="M16.7,16.6c-0.7,0-1.2,0.6-1.2,1.3L16.1,29c0,0.7,0.6,1.2,1.2,1.2c0,0,0,0,0.1,0c0.7,0,1.2-0.6,1.2-1.3
		L18,17.8C18,17.1,17.4,16.6,16.7,16.6z"/>
	<path class="st0" d="M22.3,30.2C22.3,30.2,22.4,30.2,22.3,30.2c0.7,0,1.3-0.5,1.3-1.2l0.7-11.1c0-0.7-0.5-1.3-1.2-1.3
		c-0.7,0-1.3,0.5-1.3,1.2l-0.7,11.1C21.1,29.6,21.6,30.2,22.3,30.2z"/>
</g>
</svg>
