<?xml version="1.0" encoding="utf-8"?>
<!-- Generator: Adobe Illustrator 25.4.1, SVG Export Plug-In . SVG Version: 6.00 Build 0)  -->
<svg version="1.1" id="Layer_1" xmlns="http://www.w3.org/2000/svg" xmlns:xlink="http://www.w3.org/1999/xlink" x="0px" y="0px"
	 viewBox="0 0 529.3 109.2" style="enable-background:new 0 0 529.3 109.2;" xml:space="preserve">
<style type="text/css">
	.st0{fill:#FFFFFF;}
</style>
<g>
	<path class="st0" d="M52.7,86.4l2.5,1.9c-0.7,1.4-1.3,2.6-1.9,3.7c-0.6,1.1-1.3,2.3-2.2,3.9c-0.9,1.5-1.5,2.6-2,3.4
		c-3.8,6.6-7.3,9.9-10.7,9.9c-1.4,0-2.6-0.6-3.6-1.7c-1-1.1-1.5-2.6-1.5-4.5c0-2.7,1-6.5,2.9-11.2c1.9-4.7,4.9-10.6,9-17.5
		c4.1-6.9,9.2-14.8,15.3-23.6c6.2-8.8,13.1-18,20.8-27.8c-4.4-0.7-9.7-1-15.8-1c-7,0-14.8,0.8-23.4,2.3c-8.6,1.6-16.1,3.4-22.5,5.4
		c-6.4,2-9.6,3.5-9.6,4.5c0,0.4,0.1,0.6,0.4,0.7c0.3,0.1,0.7,0.2,1.2,0.3c0.6,0.1,1.3,0.2,2.2,0.3c5.9,0.8,8.9,1.7,8.9,2.7
		c0,0.5-1.3,0.7-3.9,0.7c-2.6,0-5.7,0-9.3,0c-2.9,0-5-0.1-6.2-0.3c-1.3-0.2-2.1-0.7-2.6-1.3c-0.4-0.6-0.6-1.6-0.6-2.9
		c0-0.9,0.3-2.7,0.8-5.6c1-5.3,2.4-9.6,4.4-12.9c2-3.2,5-5.9,9.2-7.9c4.1-2,9.8-3.7,17-4.9C43.6,1,53.6,0,61.6,0
		C67.4,0,72,0.2,75.4,0.7c3.4,0.5,5.9,1.2,7.5,2.1c1.6,0.9,2.6,1.8,3,2.7c0.4,0.9,1,2.4,1.7,4.6l2.3,7c0.2,0.5,0.3,0.8,0.4,1.1
		c0.1,0.3,0.2,0.6,0.3,0.9c0.1,0.3,0.1,0.6,0.1,0.8c0,2-0.4,3.7-1.3,5.3c-0.9,1.6-2.5,3.9-4.8,7c-2.3,3.1-4.1,5.6-5.2,7.3
		C66.3,60.6,57.4,76.3,52.7,86.4z"/>
	<path class="st0" d="M118,82.9c-1.9,1.9-4.3,4-7.2,6.4c-2.9,2.4-6,4.6-9.2,6.5c-3.2,1.9-6.4,3.4-9.5,4.4c-3.2,1-5.9,1.1-8.1,0.2
		c-1.4-0.6-2.4-1.6-2.9-2.9c-0.5-1.3-0.7-2.8-0.5-4.4c0.2-1.7,0.8-3.5,1.7-5.5c0.9-2,2-4,3.1-5.8c1.1-1.9,2.3-3.6,3.5-5.3
		c1.2-1.7,2.2-2.9,3-3.9c1.1-1.2,2-2.3,2.6-3.3c0.6-0.9,1.3-1.7,2.1-2.3c0.8-0.5,2-0.9,3.4-1c1.4-0.2,2.5-0.1,3.3,0.2
		c0.7,0.5,0.9,1,0.5,1.5c-0.4,0.5-0.7,0.8-0.9,1c-0.8,0.9-2,2.2-3.6,3.7c-1.6,1.6-3.3,3.3-5,5.3c-1.8,2-3.4,4.3-4.8,6.7
		c-1.4,2.5-2.4,5.1-2.8,7.9c0,1.1,0.7,1.8,2.2,2.1c1.4,0.3,3.4,0.1,5.7-0.4c0.6-0.1,1.9-0.6,4-1.4c2-0.8,4.4-2,7.1-3.5
		c2.7-1.5,5.6-3.3,8.6-5.4c3-2.1,5.8-4.6,8.3-7.4c0.8-1.1,1.3-1.4,1.5-0.8c0.2,0.6-0.2,1.5-1.1,2.6c-0.6,0.7-1.3,1.4-2.2,2.2
		C119.7,81.3,118.8,82.1,118,82.9z M103.3,63.4c-0.8-2-0.7-3.4,0.3-4.4c1-1,2.2-1.5,3.6-1.6c1.3-0.1,2.5,0.3,3.4,1
		c0.9,0.7,0.8,1.9-0.3,3.4c-0.2,0.3-0.7,0.6-1.5,0.9c-0.8,0.3-1.5,0.5-2.3,0.6c-0.8,0.2-1.5,0.3-2.2,0.3
		C103.6,63.6,103.3,63.6,103.3,63.4z"/>
	<path class="st0" d="M162.6,101c-1.7-0.3-2.7-1.1-3.2-2.4c-0.5-1.3-0.6-2.8-0.5-4.6c0.2-1.8,0.5-3.6,1.2-5.5
		c0.6-1.9,1.2-3.7,1.7-5.3c0.5-1.7,0.8-3.1,0.9-4.3c0.1-1.2-0.3-1.9-1.1-2.1c-1-0.2-2.2,0.2-3.4,1.1c-1.2,0.9-2.6,2.1-4,3.6
		c-1.4,1.4-2.8,3-4.3,4.7c-1.4,1.7-2.9,3.1-4.3,4.3c-1.4,1.2-2.7,2-4,2.3c-1.3,0.4-2.5,0-3.5-1.2c-0.7-1.3-0.9-2.9-0.6-4.7
		c0.3-1.8,0.7-3.5,1.3-5.1c0.6-1.6,1.1-3,1.7-4.2c0.6-1.2,0.8-1.8,0.7-1.8c-1.2,0.2-2.6,1-4.2,2.4c-1.6,1.4-3.2,3.1-4.8,5
		c-1.7,2-3.3,4-4.9,6c-1.6,2.1-3,3.8-4.3,5.3c-0.3,0.3-0.9,1-1.9,2.2c-0.9,1.1-1.9,2.2-3,3.1s-2.1,1.4-3.2,1.5
		c-1,0.1-1.9-0.7-2.5-2.5c-0.6-2.2-0.4-4.8,0.5-7.8c1-3,2.2-6,3.6-8.8c1.4-2.8,2.9-5.3,4.3-7.4c1.4-2.1,2.2-3.2,2.4-3.4
		c0.5-0.9,1.4-1.5,2.6-1.8c1.2-0.3,2.1-0.2,2.8,0.3c0.7,0.5,0.9,1.2,0.7,2.3c-0.2,1.1-1.4,2.5-3.7,4.3c-1,1.1-2,2.6-2.9,4.3
		s-1.7,3.4-2.3,5c-0.6,1.7-1,3.1-1.2,4.3c-0.2,1.2-0.1,1.8,0.3,1.8c0.7,0,1.7-0.7,3-2.1c1.3-1.4,2.8-3.1,4.6-5.1
		c1.8-2,3.6-4.1,5.7-6.4c2-2.2,4.1-4.2,6.1-6c2.1-1.7,3.7-2.7,5-3.1c1.2-0.4,2.5-0.5,3.6-0.3c1.2,0.2,1.6,1,1.3,2.5
		c-0.1,0.5-0.2,0.9-0.3,1.2c-0.1,0.3-0.3,0.7-0.6,1.2c-0.3,0.5-0.7,1.1-1.2,1.9c-0.5,0.8-1.3,2.1-2.3,3.7c-0.5,0.8-1,2-1.3,3.4
		c-0.4,1.4-0.5,2.7-0.4,3.7c0.2,1.2,0.7,1.5,1.5,0.9c0.8-0.7,1.5-1.4,2.1-2.1c1.3-1.3,2.9-2.9,4.8-4.7c1.9-1.8,3.7-3.5,5.6-5.2
		c1.9-1.7,3.6-3,5.3-4.1c1.7-1.1,2.9-1.6,3.7-1.6c1.9,0,2.9,0.8,3.3,2.2c0.3,1.5,0.2,3.3-0.2,5.4c-0.5,2.1-1.1,4.4-2,6.7
		c-0.9,2.4-1.6,4.5-2.2,6.4c-0.1,1.2,0.6,1.7,2.1,1.4c1.5-0.3,3.3-1,5.4-2.2c2.1-1.1,4.3-2.5,6.5-4c2.2-1.6,4.1-2.9,5.5-4
		c0.1-0.1,0.2-0.2,0.3-0.2c0.1-0.1,0.2-0.1,0.3-0.2c1.1-0.9,2.2-1.8,3.1-2.6c0.9-0.8,1.7-1.5,2.2-2.1c0.4-0.7,0.8-1.1,1.2-1.1
		c0.3,0,0.4,0.3,0.4,0.9c-0.1,0.6-0.4,1.3-1.2,2.1c-0.8,0.9-1.8,1.9-2.8,2.8c-1.7,1.8-3.7,3.8-6.1,6.1c-2.4,2.3-4.9,4.5-7.4,6.6
		c-2.5,2.1-4.8,3.8-6.8,5.2C165.2,100.5,163.7,101.1,162.6,101z"/>
	<path class="st0" d="M173.8,95.3c-0.3-2.3,0.3-4.5,1.7-6.8c1.4-2.3,3.3-4.5,5.7-6.6c2.3-2.1,4.9-4,7.7-5.7c2.8-1.7,5.4-3.1,7.8-4.1
		c4.4-1.9,8.3-3.1,11.7-3.8c3.4-0.7,6-1,8-1c2.5,0,4.1,0.4,4.7,1.3c0.7,0.9,0,2.6-2.1,5c-1.9,2.1-4.5,3.9-8.1,5.6
		c-3.5,1.7-7.1,3-10.6,4c-3.6,1-6.8,1.5-9.7,1.7c-2.9,0.2-4.7-0.2-5.4-1.2c3.7,0,7.1-0.4,10.2-1.1c3.1-0.7,5.8-1.6,8.2-2.7
		c2.4-1.1,4.4-2.2,6-3.3c1.6-1.1,2.8-2.1,3.6-2.9c0.8-0.8,1.1-1.3,0.8-1.5c-0.3-0.2-1-0.3-2-0.3c-0.8,0-2,0.1-3.4,0.3
		c-1.4,0.2-3,0.5-4.7,0.9c-1.7,0.4-3.5,1-5.4,1.6c-1.9,0.7-3.7,1.5-5.3,2.4c-2.2,1.2-4.1,2.7-5.8,4.3c-1.7,1.6-3,3.2-4,4.7
		c-1,1.5-1.5,3-1.6,4.3c-0.1,1.3,0.4,2.3,1.5,3c2.7,1.1,5.8,1.5,9.4,1.2c3.6-0.4,7.3-1.2,11.1-2.4c0.9-0.3,1.7-0.5,2.2-0.7
		c0.5-0.2,1.6-0.5,3.1-1.2c1.7-0.7,3.6-1.6,5.7-2.6c2.2-1,4.3-2,6.4-3.2c2.1-1.1,4.1-2.4,6-3.7c1.9-1.3,3.4-2.7,4.5-4.2
		c0.8-1.1,1.4-1.4,1.6-0.8c0.3,0.6-0.1,1.5-1.2,2.6c-0.7,0.8-1.6,1.7-2.6,2.7c-1,1-2,1.8-2.8,2.6c-0.3,0.3-1.2,1-2.7,2
		c-1.5,1-3.3,2.2-5.5,3.5c-2.2,1.3-4.5,2.6-7.1,3.9c-2.6,1.3-5.1,2.4-7.6,3.2c-3.3,1.3-6.6,2.5-9.8,3.5c-3.2,1-6.2,1.5-8.9,1.6
		c-2.7,0.1-5.1-0.3-7.1-1.2C175.9,99.3,174.5,97.7,173.8,95.3z"/>
	<path class="st0" d="M282.6,86.4l2.5,1.9c-0.7,1.4-1.3,2.6-1.9,3.7c-0.6,1.1-1.3,2.3-2.2,3.9c-0.9,1.5-1.5,2.6-2,3.4
		c-3.8,6.6-7.3,9.9-10.7,9.9c-1.4,0-2.6-0.6-3.6-1.7c-1-1.1-1.5-2.6-1.5-4.5c0-2.7,1-6.5,2.9-11.2c1.9-4.7,4.9-10.6,9-17.5
		c4.1-6.9,9.2-14.8,15.3-23.6c6.2-8.8,13.1-18,20.8-27.8c-4.4-0.7-9.7-1-15.8-1c-7,0-14.8,0.8-23.4,2.3c-8.6,1.6-16.1,3.4-22.5,5.4
		c-6.4,2-9.6,3.5-9.6,4.5c0,0.4,0.1,0.6,0.4,0.7c0.3,0.1,0.7,0.2,1.2,0.3c0.6,0.1,1.3,0.2,2.2,0.3c5.9,0.8,8.9,1.7,8.9,2.7
		c0,0.5-1.3,0.7-3.9,0.7c-2.6,0-5.7,0-9.3,0c-2.9,0-5-0.1-6.2-0.3c-1.3-0.2-2.1-0.7-2.6-1.3c-0.4-0.6-0.6-1.6-0.6-2.9
		c0-0.9,0.3-2.7,0.8-5.6c1-5.3,2.4-9.6,4.4-12.9c2-3.2,5-5.9,9.2-7.9c4.1-2,9.8-3.7,17-4.9C273.5,1,283.5,0,291.5,0
		c5.9,0,10.5,0.2,13.9,0.7c3.4,0.5,5.9,1.2,7.5,2.1c1.6,0.9,2.6,1.8,3,2.7c0.4,0.9,1,2.4,1.7,4.6l2.3,7c0.2,0.5,0.3,0.8,0.4,1.1
		c0.1,0.3,0.2,0.6,0.3,0.9c0.1,0.3,0.1,0.6,0.1,0.8c0,2-0.4,3.7-1.3,5.3c-0.9,1.6-2.5,3.9-4.8,7c-2.3,3.1-4.1,5.6-5.2,7.3
		C296.2,60.6,287.3,76.3,282.6,86.4z"/>
	<path class="st0" d="M330.2,68c0.4,0.5,0.3,1.2-0.2,2c-0.6,0.8-1.6,2.3-3,4.5c0.1-0.2,0.3-0.5,0.6-0.8c3.2-3.3,6.3-5.9,9.3-7.8
		c3-1.9,5.4-2,7.3-0.5c0.7,0.6,1.2,1.4,1.3,2.2c0.2,0.9,0.1,1.7-0.2,2.4c-0.3,0.7-0.6,1.3-1.2,1.7c-0.5,0.4-1.1,0.5-1.7,0.3
		c-0.6-0.2-0.9-0.5-0.8-1c0.1-0.5-0.1-0.9-0.5-1.2c-0.9-0.8-2.4-0.7-4.5,0.3c-2.1,1-4.3,2.8-6.8,5.4c-1.8,1.9-3.4,3.8-4.9,5.8
		c-1.5,2-2.9,4-4.1,5.8c-1.2,1.9-2.4,3.6-3.4,5.3c-1,1.7-1.9,3-2.6,4c-1,1.4-2.1,2.5-3.2,3.1s-1.9,0.9-2.6,0.9c-0.6-0.1-1-0.5-1-1.3
		c-0.1-0.8,0.4-2,1.5-3.6c0.3-0.5,0.7-1.1,1.2-1.9c0.5-0.7,1-1.5,1.5-2.5c2.7-4.2,5-8.3,6.8-12.1c1.9-3.8,2.8-6.7,2.9-8.7
		c0-1.3,0.4-2.3,1.2-2.9c0.8-0.6,1.6-0.9,2.6-0.9c0.9-0.1,1.8,0.1,2.7,0.3C329.3,67.4,329.9,67.7,330.2,68z"/>
	<path class="st0" d="M381.1,67.7c-0.1-0.8-0.9-1.3-2.4-1.4c-1.5-0.1-3.5,0.1-6,0.6c-2.6,0.6-5.3,1.7-8.3,3.1
		c-2.9,1.4-5.8,3.2-8.6,5.1c-2.8,1.9-4.9,3.6-6.2,5.2c-1.3,1.6-2.7,3.5-4.2,5.7c-1.1,1.8-1.8,3.4-1.9,5c-0.2,1.6,0.4,3,1.6,4.1
		c1.1,0.9,3.3,0.5,6.4-1.2c3.1-1.8,6.8-4,11.2-6.7c1.9-1.1,3.7-2.3,5.6-3.6c1.9-1.3,3.6-2.4,5.3-3.4c1.7-1,3.2-1.8,4.6-2.3
		c1.3-0.6,2.3-0.7,2.9-0.4c1.4,0.6,2,1.6,1.6,3c-0.4,1.4-1,2.8-2,4.3c-1,1.5-1.9,2.8-2.9,4c-0.9,1.2-1.3,1.8-1.1,1.9
		c1.7,0.6,3.9,0.4,6.7-0.5c2.8-1,5.6-2.3,8.4-4c2.8-1.7,5.4-3.4,7.8-5.3c2.4-1.9,4-3.4,5-4.5c0.8-1.1,1.3-1.4,1.5-0.8
		c0.2,0.6-0.2,1.5-1.2,2.6c-0.3,0.4-0.6,0.8-0.9,1.2c-0.3,0.4-0.6,0.7-0.9,1c-1,1.1-2.5,2.6-4.5,4.3c-2,1.8-4.1,3.5-6.5,5.2
		c-2.4,1.7-4.8,3.3-7.4,4.8c-2.5,1.5-4.8,2.5-6.9,3.1c-2.1,0.6-3.7,0.6-5,0.1c-1.2-0.5-1.8-1.9-1.7-4.2c0.2-1.4,0.9-3.2,2.2-5.1
		c0.5-0.9,1-1.7,1.5-2.3s0.8-1.1,1-1.5c0.3-0.4,0.6-0.8,0.8-1.2c-0.4-0.2-1.8,0.4-4.2,1.8c-2.4,1.4-5.1,3.1-8.2,5
		c-2.5,1.5-5,3.1-7.5,4.6c-2.5,1.6-4.9,2.8-7.2,3.9c-2.3,1-4.3,1.7-6.1,2.1c-1.8,0.4-3.2,0.1-4.3-0.9c-2.1-1.8-3-3.9-2.9-6.4
		c0.2-2.5,1.1-5.1,2.9-7.8c1.5-2.4,3.6-4.8,6.3-7.3c2.6-2.5,5.5-4.8,8.6-7c3.1-2.1,6.3-3.9,9.5-5.4s6.3-2.7,9.2-3.4
		c3.5-0.8,6.5-0.9,9-0.2c2.5,0.7,4.1,2.4,5,5.2c0.2,1.9-0.1,3.1-0.9,3.8c-0.8,0.7-2.3,0.6-4.6-0.2c-0.6-0.3-0.8-0.9-0.5-1.7
		C381.1,69,381.2,68.3,381.1,67.7z"/>
	<path class="st0" d="M398,66.9c2.1-0.9,3.8-1.5,5.3-1.7c1.4-0.2,2.6-0.2,3.6,0.2c0.9,0.3,1.6,0.8,2,1.5c0.4,0.7,0.7,1.5,0.8,2.4
		c0.1,1.3-0.1,2.8-0.7,4.4c-0.6,1.6-1.2,3.3-1.9,5c-0.7,1.7-1.5,3.4-2.3,5c-0.8,1.7-1.5,3.1-2,4.4c-0.5,1.3-0.8,2.4-0.7,3.2
		c0.1,0.8,0.5,1.2,1.5,1.2s2.4-0.8,4.4-2.3c2-1.5,4.3-3.4,7-5.7c2.6-2.2,5.5-4.6,8.5-7.1c3-2.5,6-4.8,9-6.9c2.9-2.1,5.8-3.7,8.6-4.9
		c2.8-1.2,5.2-1.6,7.3-1.2c0.2,0.1,0.3,0.3,0.2,0.6c-0.1,0.3-0.3,0.7-0.7,1.1c-0.4,0.4-0.8,0.8-1.2,1.1c-0.4,0.3-0.8,0.5-1.2,0.6
		c-1-0.1-2.5,0.4-4.4,1.4c-1.9,1-4,2.5-6.4,4.3c-2.3,1.8-4.8,3.9-7.4,6.1c-2.6,2.3-5.1,4.5-7.5,6.6c-2.4,2.1-4.7,4.1-6.7,6
		c-2.1,1.9-3.8,3.3-5.1,4.2c-3,2.3-5.2,3.6-6.7,4c-1.4,0.4-2.8,0.6-4,0.6c-0.8,0-1.4-0.4-1.8-1.3c-0.4-0.9-0.5-2-0.5-3.3
		c0-1.3,0.2-2.8,0.5-4.5c0.4-1.7,1-3.3,1.8-4.8c0.7-1.5,1.5-3.1,2.4-4.7c0.9-1.5,1.7-3,2.3-4.4c0.7-1.4,1.2-2.7,1.6-3.9
		c0.4-1.2,0.6-2.2,0.6-3c-0.2-1.7-1.1-2.2-2.8-1.5c-0.3,0.1-0.7,0-1.2-0.2c-0.5-0.3-1-0.5-1.3-0.9c-0.4-0.3-0.6-0.6-0.9-0.9
		C397.6,67.2,397.7,67,398,66.9z"/>
	<path class="st0" d="M431,95.3c-0.3-2.3,0.3-4.5,1.7-6.8c1.4-2.3,3.3-4.5,5.7-6.6c2.3-2.1,4.9-4,7.7-5.7s5.4-3.1,7.8-4.1
		c4.4-1.9,8.3-3.1,11.7-3.8c3.4-0.7,6-1,8-1c2.5,0,4.1,0.4,4.7,1.3c0.7,0.9,0,2.6-2.1,5c-1.9,2.1-4.5,3.9-8.1,5.6
		c-3.5,1.7-7.1,3-10.6,4c-3.6,1-6.8,1.5-9.7,1.7c-2.9,0.2-4.7-0.2-5.4-1.2c3.7,0,7.1-0.4,10.2-1.1c3.1-0.7,5.8-1.6,8.2-2.7
		c2.4-1.1,4.4-2.2,6-3.3c1.6-1.1,2.8-2.1,3.6-2.9c0.8-0.8,1.1-1.3,0.8-1.5c-0.3-0.2-1-0.3-2-0.3c-0.8,0-2,0.1-3.4,0.3
		c-1.4,0.2-3,0.5-4.7,0.9c-1.7,0.4-3.5,1-5.4,1.6c-1.9,0.7-3.7,1.5-5.3,2.4c-2.2,1.2-4.1,2.7-5.8,4.3c-1.7,1.6-3,3.2-4,4.7
		c-1,1.5-1.5,3-1.6,4.3c-0.1,1.3,0.4,2.3,1.6,3c2.7,1.1,5.8,1.5,9.4,1.2c3.6-0.4,7.3-1.2,11.1-2.4c0.9-0.3,1.7-0.5,2.2-0.7
		c0.5-0.2,1.5-0.5,3.1-1.2c1.7-0.7,3.6-1.6,5.7-2.6c2.2-1,4.3-2,6.4-3.2c2.1-1.1,4.1-2.4,6-3.7c1.9-1.3,3.4-2.7,4.5-4.2
		c0.8-1.1,1.4-1.4,1.6-0.8c0.3,0.6-0.1,1.5-1.2,2.6c-0.7,0.8-1.6,1.7-2.6,2.7c-1,1-2,1.8-2.8,2.6c-0.3,0.3-1.2,1-2.7,2
		c-1.5,1-3.3,2.2-5.5,3.5c-2.2,1.3-4.5,2.6-7.1,3.9c-2.6,1.3-5.1,2.4-7.6,3.2c-3.3,1.3-6.6,2.5-9.8,3.5c-3.2,1-6.2,1.5-8.9,1.6
		c-2.7,0.1-5.1-0.3-7.1-1.2C433,99.3,431.7,97.7,431,95.3z"/>
	<path class="st0" d="M527.5,24.6c-2.1,2.5-4.3,5-6.8,7.6c-2.5,2.6-5.2,5.7-8.1,9.2s-6.1,7.9-9.4,12.9c-3.3,5.1-6.8,11.3-10.5,18.8
		c-2.5,5.1-4.1,9.1-5,12.2c-0.8,3.1-0.6,5.2,0.6,6.4c1.1,0.7,2.4,1.1,3.9,1.2c1.4,0.1,3,0,4.8-0.3c1.7-0.4,3.8-1.3,6.5-2.6
		c2.7-1.3,5.4-2.7,8.1-4.2c2.7-1.5,5.1-2.9,7.3-4.3c2.2-1.4,3.6-2.4,4.2-3l2-2c0.8-1.1,1.3-1.4,1.5-0.8c0.2,0.6-0.2,1.5-1.2,2.6
		c-1.1,1.2-2.5,2.6-4.1,4.1c-1.6,1.5-3.4,3-5.3,4.4c-2.4,2-5,3.9-7.8,5.8c-2.8,1.9-5.6,3.6-8.4,5c-2.8,1.4-5.5,2.4-8.1,3.1
		c-2.6,0.7-4.9,0.7-6.8,0.2c-2.4-0.7-3.9-2.2-4.4-4.3c-0.6-2.2-0.4-4.9,0.4-8.1c0.7-3,1.9-6.3,3.6-9.9c1.7-3.6,3.7-7.4,6.1-11.3
		c3.9-7.3,7.6-13.3,11-18s6.4-8.5,8.8-11.5c2.5-3,4.4-5.4,5.9-7.4c1.4-1.9,2.2-3.8,2.3-5.8c0.1-0.8,1-1.7,2.6-2.6
		c1.7-0.9,3.2-1.5,4.7-1.8c1.5-0.3,2.6-0.2,3.2,0.4C529.9,21.4,529.3,22.6,527.5,24.6z"/>
</g>
</svg>
