<?xml version="1.0" encoding="utf-8"?>
<!-- Generator: Adobe Illustrator 27.0.1, SVG Export Plug-In . SVG Version: 6.00 Build 0)  -->
<svg version="1.1" id="圖層_1" xmlns="http://www.w3.org/2000/svg" xmlns:xlink="http://www.w3.org/1999/xlink" x="0px" y="0px"
	 viewBox="0 0 200 200" style="enable-background:new 0 0 200 200;" xml:space="preserve">
<style type="text/css">
	.st0{fill:url(#SVGID_1_);}
	.st1{fill:url(#SVGID_00000127744888469345664880000010818556232861123741_);}
	.st2{fill:url(#SVGID_00000076575565919383736590000004222769288152586649_);}
</style>
<g>
	
		<linearGradient id="SVGID_1_" gradientUnits="userSpaceOnUse" x1="27.3681" y1="102" x2="117.9681" y2="102" gradientTransform="matrix(1 0 0 -1 0 202)">
		<stop  offset="0" style="stop-color:#29B8A5"/>
		<stop  offset="0.6291" style="stop-color:#59D8A1"/>
		<stop  offset="1" style="stop-color:#49A57D"/>
	</linearGradient>
	<path class="st0" d="M80,131.8l2.5,1.9c-0.7,1.4-1.3,2.6-1.9,3.7c-0.6,1.1-1.3,2.3-2.2,3.9c-0.9,1.5-1.5,2.6-2,3.4
		c-3.8,6.6-7.3,9.9-10.7,9.9c-1.4,0-2.6-0.6-3.6-1.7c-1-1.1-1.5-2.6-1.5-4.5c0-2.7,1-6.5,2.9-11.2s4.9-10.6,9-17.5
		s9.2-14.8,15.3-23.6c6.2-8.8,13.1-18,20.8-27.8c-4.4-0.7-9.7-1-15.8-1c-7,0-14.8,0.8-23.4,2.3C60.8,71.2,53.3,73,46.9,75
		s-9.6,3.5-9.6,4.5c0,0.4,0.1,0.6,0.4,0.7s0.7,0.2,1.2,0.3c0.6,0.1,1.3,0.2,2.2,0.3c5.9,0.8,8.9,1.7,8.9,2.7c0,0.5-1.3,0.7-3.9,0.7
		c-2.6,0-5.7,0-9.3,0c-2.9,0-5-0.1-6.2-0.3c-1.3-0.2-2.1-0.7-2.6-1.3c-0.4-0.6-0.6-1.6-0.6-2.9c0-0.9,0.3-2.7,0.8-5.6
		c1-5.3,2.4-9.6,4.4-12.9c2-3.2,5-5.9,9.2-7.9c4.1-2,9.8-3.7,17-4.9c12.1-2,22.1-3,30.1-3c5.8,0,10.4,0.2,13.8,0.7s5.9,1.2,7.5,2.1
		c1.6,0.9,2.6,1.8,3,2.7c0.4,0.9,1,2.4,1.7,4.6l2.3,7c0.2,0.5,0.3,0.8,0.4,1.1c0.1,0.3,0.2,0.6,0.3,0.9c0.1,0.3,0.1,0.6,0.1,0.8
		c0,2-0.4,3.7-1.3,5.3s-2.5,3.9-4.8,7s-4.1,5.6-5.2,7.3C93.6,106,84.7,121.7,80,131.8z"/>
	<g>
		
			<linearGradient id="SVGID_00000088848367507524163180000007784299709525643658_" gradientUnits="userSpaceOnUse" x1="81.9318" y1="76.9999" x2="103.8347" y2="76.9999">
			<stop  offset="0" style="stop-color:#63D2FF"/>
			<stop  offset="0.6682" style="stop-color:#63A7FF"/>
		</linearGradient>
		<path style="fill:url(#SVGID_00000088848367507524163180000007784299709525643658_);" d="M99.8,75.5c1.3-1.7,2.7-3.5,4.1-5.3
			c-3.2-0.3-6.9-0.4-11.1-0.4c-2.9,0-6,0.1-9.2,0.4c-0.3,1.2-0.6,2.5-0.9,3.9c-0.5,2.9-0.8,4.7-0.8,5.6c0,1.3,0.2,2.3,0.6,2.9
			c0.5,0.6,1.3,1.1,2.6,1.3c1.2,0.2,3.3,0.3,6.2,0.3c0.7,0,1.3,0,2,0c0.8-1.1,1.7-2.2,2.5-3.4c-0.1,0-0.1,0-0.2,0
			c-0.9-0.1-1.6-0.2-2.2-0.3c-0.5-0.1-0.9-0.2-1.2-0.3c-0.3-0.1-0.4-0.3-0.4-0.7C91.8,78.6,94.5,77.3,99.8,75.5z"/>
		
			<linearGradient id="SVGID_00000101100468217978708970000003622652258801633462_" gradientUnits="userSpaceOnUse" x1="114.3389" y1="100" x2="172.5146" y2="100">
			<stop  offset="0" style="stop-color:#63D2FF"/>
			<stop  offset="0.6682" style="stop-color:#63A7FF"/>
		</linearGradient>
		<path style="fill:url(#SVGID_00000101100468217978708970000003622652258801633462_);" d="M172.5,64.5c-0.1-0.3-0.2-0.6-0.3-0.9
			c-0.1-0.3-0.2-0.6-0.4-1.1l-2.3-7c-0.7-2.2-1.3-3.7-1.7-4.6c-0.4-0.9-1.4-1.8-3-2.7c-1.6-0.9-4.1-1.6-7.5-2.1
			c-3.4-0.5-8-0.7-13.9-0.7c-7.8,0-17.5,1-29.1,2.8c0.5,0.5,0.9,1.1,1.1,1.6c0.4,0.9,1,2.5,1.8,4.9l2.3,6.9c0.2,0.5,0.3,0.8,0.4,1.1
			l0.3,0.9c0.2,0.7,0.2,1.3,0.2,1.6c0,1.9-0.3,3.6-1,5.2c1.4-0.3,2.9-0.6,4.4-0.9c8.6-1.5,16.4-2.3,23.4-2.3c6.1,0,11.4,0.3,15.8,1
			c-7.7,9.8-14.6,19-20.8,27.8c-6.1,8.8-11.2,16.7-15.3,23.6c-4.1,6.9-7.1,12.8-9,17.5c-1.9,4.7-2.9,8.5-2.9,11.2
			c0,1.9,0.5,3.4,1.5,4.5c1,1.1,2.2,1.7,3.6,1.7c3.4,0,6.9-3.3,10.7-9.9c0.5-0.8,1.1-1.9,2-3.4c0.9-1.6,1.6-2.8,2.2-3.9
			c0.6-1.1,1.2-2.3,1.9-3.7l-2.5-1.9c4.7-10.1,13.6-25.8,26.8-46.9c1.1-1.7,2.9-4.2,5.2-7.3c2.3-3.1,3.9-5.4,4.8-7
			c0.9-1.6,1.3-3.3,1.3-5.3C172.6,65.1,172.6,64.8,172.5,64.5z"/>
	</g>
</g>
</svg>
