<?xml version="1.0" encoding="utf-8"?>
<!-- Generator: Adobe Illustrator 25.4.1, SVG Export Plug-In . SVG Version: 6.00 Build 0)  -->
<svg version="1.1" id="圖層_1" xmlns="http://www.w3.org/2000/svg" xmlns:xlink="http://www.w3.org/1999/xlink" x="0px" y="0px"
	 viewBox="0 0 200 200" style="enable-background:new 0 0 200 200;" xml:space="preserve">
<style type="text/css">
	.st0{fill:url(#SVGID_1_);}
	.st1{fill:url(#SVGID_00000019642692505389168860000008638271647689071239_);}
	.st2{fill:url(#SVGID_00000003075848661089732220000004651130637850101392_);}
</style>
<g>
	
		<linearGradient id="SVGID_1_" gradientUnits="userSpaceOnUse" x1="-1.249504e-02" y1="-292" x2="124.818" y2="-292" gradientTransform="matrix(1 0 0 -1 0 -192)">
		<stop  offset="0" style="stop-color:#29B8A5"/>
		<stop  offset="0.6291" style="stop-color:#59D8A1"/>
		<stop  offset="1" style="stop-color:#49A57D"/>
	</linearGradient>
	<path class="st0" d="M72.5,143.8l3.4,2.6c-1,1.9-1.8,3.6-2.6,5.1c-0.8,1.5-1.8,3.2-3,5.4c-1.2,2.1-2.1,3.6-2.8,4.7
		c-5.2,9.1-10.1,13.6-14.7,13.6c-1.9,0-3.6-0.8-5-2.3c-1.4-1.5-2.1-3.6-2.1-6.2c0-3.7,1.4-9,4-15.4s6.8-14.6,12.4-24.1
		s12.7-20.4,21.1-32.5c8.5-12.1,18-24.8,28.7-38.3c-6.1-1-13.4-1.4-21.8-1.4c-9.6,0-20.4,1.1-32.2,3.2c-11.8,2.2-22.2,4.7-31,7.4
		c-8.8,2.8-13.2,4.8-13.2,6.2c0,0.6,0.1,0.8,0.6,1s1,0.3,1.7,0.4c0.8,0.1,1.8,0.3,3,0.4c8.1,1.1,12.3,2.3,12.3,3.7
		c0,0.7-1.8,1-5.4,1c-3.6,0-7.9,0-12.8,0c-4,0-6.9-0.1-8.5-0.4c-1.8-0.3-2.9-1-3.6-1.8C0.3,75.2,0,73.8,0,72c0-1.2,0.4-3.7,1.1-7.7
		C2.5,57,4.4,51.1,7.2,46.5c2.8-4.4,6.9-8.1,12.7-10.9c5.6-2.8,13.5-5.1,23.4-6.8c16.7-2.8,30.4-4.1,41.5-4.1c8,0,14.3,0.3,19,1
		c4.7,0.7,8.1,1.7,10.3,2.9c2.2,1.2,3.6,2.5,4.1,3.7c0.6,1.2,1.4,3.3,2.3,6.3l3.2,9.6c0.3,0.7,0.4,1.1,0.6,1.5s0.3,0.8,0.4,1.2
		c0.1,0.4,0.1,0.8,0.1,1.1c0,2.8-0.6,5.1-1.8,7.3c-1.2,2.2-3.4,5.4-6.6,9.6s-5.6,7.7-7.2,10.1C91.2,108.3,78.9,129.9,72.5,143.8z"/>
	<g>
		
			<linearGradient id="SVGID_00000072966721633936432400000008157090106244721586_" gradientUnits="userSpaceOnUse" x1="75.1225" y1="462.3102" x2="105.3007" y2="462.3102" gradientTransform="matrix(1 0 0 1 0 -394)">
			<stop  offset="0" style="stop-color:#63D2FF"/>
			<stop  offset="0.6682" style="stop-color:#63A7FF"/>
		</linearGradient>
		<path style="fill:url(#SVGID_00000072966721633936432400000008157090106244721586_);" d="M99.7,66.2c1.8-2.3,3.7-4.8,5.6-7.3
			c-4.4-0.4-9.5-0.6-15.3-0.6c-4,0-8.3,0.1-12.7,0.6c-0.4,1.7-0.8,3.4-1.2,5.4c-0.7,4-1.1,6.5-1.1,7.7c0,1.8,0.3,3.2,0.8,4
			c0.7,0.8,1.8,1.5,3.6,1.8c1.7,0.3,4.5,0.4,8.5,0.4c1,0,1.8,0,2.8,0c1.1-1.5,2.3-3,3.4-4.7c-0.1,0-0.1,0-0.3,0
			c-1.2-0.1-2.2-0.3-3-0.4c-0.7-0.1-1.2-0.3-1.7-0.4c-0.4-0.1-0.6-0.4-0.6-1C88.7,70.5,92.4,68.7,99.7,66.2z"/>
		
			<linearGradient id="SVGID_00000013175384963886055860000007375147270713772711_" gradientUnits="userSpaceOnUse" x1="119.7201" y1="493.9311" x2="199.8757" y2="493.9311" gradientTransform="matrix(1 0 0 1 0 -394)">
			<stop  offset="0" style="stop-color:#63D2FF"/>
			<stop  offset="0.6682" style="stop-color:#63A7FF"/>
		</linearGradient>
		<path style="fill:url(#SVGID_00000013175384963886055860000007375147270713772711_);" d="M199.9,51.1c-0.1-0.4-0.3-0.8-0.4-1.2
			c-0.1-0.4-0.3-0.8-0.6-1.5l-3.2-9.6c-1-3-1.8-5.1-2.3-6.3c-0.6-1.2-1.9-2.5-4.1-3.7c-2.2-1.2-5.6-2.2-10.3-2.9
			c-4.7-0.7-11-1-19.2-1c-10.7,0-24.1,1.4-40.1,3.9c0.7,0.7,1.2,1.5,1.5,2.2c0.6,1.2,1.4,3.4,2.5,6.8l3.2,9.5
			c0.3,0.7,0.4,1.1,0.6,1.5l0.4,1.2c0.3,1,0.3,1.8,0.3,2.2c0,2.6-0.4,5-1.4,7.2c1.9-0.4,4-0.8,6.1-1.2c11.8-2.1,22.6-3.2,32.2-3.2
			c8.4,0,15.7,0.4,21.8,1.4c-10.6,13.5-20.1,26.2-28.7,38.3c-8.4,12.1-15.4,23-21.1,32.5s-9.8,17.6-12.4,24.1
			c-2.6,6.5-4,11.7-4,15.4c0,2.6,0.7,4.7,2.1,6.2c1.4,1.5,3,2.3,5,2.3c4.7,0,9.5-4.5,14.7-13.6c0.7-1.1,1.5-2.6,2.8-4.7
			c1.2-2.2,2.2-3.9,3-5.4c0.8-1.5,1.7-3.2,2.6-5.1l-3.4-2.6c6.5-13.9,18.7-35.5,36.9-64.6c1.5-2.3,4-5.8,7.2-10.1
			c3.2-4.3,5.4-7.4,6.6-9.6c1.2-2.2,1.8-4.5,1.8-7.3C200,51.9,200,51.5,199.9,51.1z"/>
	</g>
</g>
</svg>
